<svg width="528" height="66" viewBox="0 0 528 66" fill="none" xmlns="http://www.w3.org/2000/svg">
<path d="M26.8804 27.88H36.8884C36.7444 25.48 36.1684 23.416 35.1604 21.688C34.1524 19.912 32.8324 18.448 31.2004 17.296C29.6164 16.096 27.7924 15.208 25.7284 14.632C23.7124 14.056 21.6004 13.768 19.3924 13.768C16.3684 13.768 13.6804 14.272 11.3284 15.28C8.97644 16.288 6.98444 17.704 5.35244 19.528C3.72044 21.304 2.47244 23.44 1.60844 25.936C0.792438 28.384 0.384438 31.048 0.384438 33.928C0.384438 36.712 0.840438 39.28 1.75244 41.632C2.66444 43.936 3.93644 45.928 5.56844 47.608C7.20044 49.288 9.16844 50.608 11.4724 51.568C13.8244 52.48 16.3924 52.936 19.1764 52.936C24.1204 52.936 28.1764 51.64 31.3444 49.048C34.5124 46.456 36.4324 42.688 37.1044 37.744H27.2404C26.9044 40.048 26.0644 41.896 24.7204 43.288C23.4244 44.632 21.5524 45.304 19.1044 45.304C17.5204 45.304 16.1764 44.944 15.0724 44.224C13.9684 43.504 13.0804 42.592 12.4084 41.488C11.7844 40.336 11.3284 39.064 11.0404 37.672C10.7524 36.28 10.6084 34.912 10.6084 33.568C10.6084 32.176 10.7524 30.784 11.0404 29.392C11.3284 27.952 11.8084 26.656 12.4804 25.504C13.2004 24.304 14.1124 23.344 15.2164 22.624C16.3204 21.856 17.6884 21.472 19.3204 21.472C23.6884 21.472 26.2084 23.608 26.8804 27.88ZM51.9522 33.424C51.9522 31.936 52.0962 30.472 52.3842 29.032C52.6722 27.592 53.1522 26.32 53.8242 25.216C54.5442 24.112 55.4802 23.224 56.6322 22.552C57.7842 21.832 59.2242 21.472 60.9522 21.472C62.6802 21.472 64.1202 21.832 65.2722 22.552C66.4722 23.224 67.4082 24.112 68.0802 25.216C68.8002 26.32 69.3042 27.592 69.5922 29.032C69.8802 30.472 70.0242 31.936 70.0242 33.424C70.0242 34.912 69.8802 36.376 69.5922 37.816C69.3042 39.208 68.8002 40.48 68.0802 41.632C67.4082 42.736 66.4722 43.624 65.2722 44.296C64.1202 44.968 62.6802 45.304 60.9522 45.304C59.2242 45.304 57.7842 44.968 56.6322 44.296C55.4802 43.624 54.5442 42.736 53.8242 41.632C53.1522 40.48 52.6722 39.208 52.3842 37.816C52.0962 36.376 51.9522 34.912 51.9522 33.424ZM41.7282 33.424C41.7282 36.4 42.1842 39.088 43.0962 41.488C44.0082 43.888 45.3042 45.952 46.9842 47.68C48.6642 49.36 50.6802 50.656 53.0322 51.568C55.3842 52.48 58.0242 52.936 60.9522 52.936C63.8802 52.936 66.5202 52.48 68.8722 51.568C71.2722 50.656 73.3122 49.36 74.9922 47.68C76.6722 45.952 77.9682 43.888 78.8802 41.488C79.7922 39.088 80.2482 36.4 80.2482 33.424C80.2482 30.448 79.7922 27.76 78.8802 25.36C77.9682 22.912 76.6722 20.848 74.9922 19.168C73.3122 17.44 71.2722 16.12 68.8722 15.208C66.5202 14.248 63.8802 13.768 60.9522 13.768C58.0242 13.768 55.3842 14.248 53.0322 15.208C50.6802 16.12 48.6642 17.44 46.9842 19.168C45.3042 20.848 44.0082 22.912 43.0962 25.36C42.1842 27.76 41.7282 30.448 41.7282 33.424ZM87.1838 14.776V52H97.4078V30.4C97.4078 28.576 97.6718 27.112 98.1998 26.008C98.7278 24.856 99.3518 23.992 100.072 23.416C100.84 22.792 101.608 22.384 102.376 22.192C103.192 21.952 103.84 21.832 104.32 21.832C105.952 21.832 107.176 22.12 107.992 22.696C108.856 23.224 109.456 23.944 109.792 24.856C110.176 25.768 110.392 26.776 110.44 27.88C110.488 28.936 110.512 30.016 110.512 31.12V52H120.736V31.264C120.736 30.112 120.808 28.984 120.952 27.88C121.144 26.728 121.48 25.72 121.96 24.856C122.488 23.944 123.184 23.224 124.048 22.696C124.96 22.12 126.136 21.832 127.576 21.832C129.016 21.832 130.144 22.072 130.96 22.552C131.824 23.032 132.472 23.68 132.904 24.496C133.336 25.312 133.6 26.272 133.696 27.376C133.792 28.48 133.84 29.656 133.84 30.904V52H144.064V27.088C144.064 24.688 143.728 22.648 143.056 20.968C142.384 19.24 141.448 17.848 140.248 16.792C139.048 15.736 137.608 14.968 135.928 14.488C134.248 14.008 132.424 13.768 130.456 13.768C127.864 13.768 125.608 14.392 123.688 15.64C121.816 16.888 120.328 18.328 119.224 19.96C118.216 17.656 116.728 16.048 114.76 15.136C112.84 14.224 110.704 13.768 108.352 13.768C105.904 13.768 103.72 14.296 101.8 15.352C99.9278 16.408 98.3198 17.896 96.9758 19.816H96.8318V14.776H87.1838ZM152.434 14.776V52H162.658V30.4C162.658 28.576 162.922 27.112 163.45 26.008C163.978 24.856 164.602 23.992 165.322 23.416C166.09 22.792 166.858 22.384 167.626 22.192C168.442 21.952 169.09 21.832 169.57 21.832C171.202 21.832 172.426 22.12 173.242 22.696C174.106 23.224 174.706 23.944 175.042 24.856C175.426 25.768 175.642 26.776 175.69 27.88C175.738 28.936 175.762 30.016 175.762 31.12V52H185.986V31.264C185.986 30.112 186.058 28.984 186.202 27.88C186.394 26.728 186.73 25.72 187.21 24.856C187.738 23.944 188.434 23.224 189.298 22.696C190.21 22.12 191.386 21.832 192.826 21.832C194.266 21.832 195.394 22.072 196.21 22.552C197.074 23.032 197.722 23.68 198.154 24.496C198.586 25.312 198.85 26.272 198.946 27.376C199.042 28.48 199.09 29.656 199.09 30.904V52H209.314V27.088C209.314 24.688 208.978 22.648 208.306 20.968C207.634 19.24 206.698 17.848 205.498 16.792C204.298 15.736 202.858 14.968 201.178 14.488C199.498 14.008 197.674 13.768 195.706 13.768C193.114 13.768 190.858 14.392 188.938 15.64C187.066 16.888 185.578 18.328 184.474 19.96C183.466 17.656 181.978 16.048 180.01 15.136C178.09 14.224 175.954 13.768 173.602 13.768C171.154 13.768 168.97 14.296 167.05 15.352C165.178 16.408 163.57 17.896 162.226 19.816H162.082V14.776H152.434ZM252.316 52V14.776H242.092V34.288C242.092 38.08 241.468 40.816 240.22 42.496C238.972 44.128 236.956 44.944 234.172 44.944C231.724 44.944 230.02 44.2 229.06 42.712C228.1 41.176 227.62 38.872 227.62 35.8V14.776H217.396V37.672C217.396 39.976 217.588 42.088 217.972 44.008C218.404 45.88 219.124 47.488 220.132 48.832C221.14 50.128 222.508 51.136 224.236 51.856C226.012 52.576 228.268 52.936 231.004 52.936C233.164 52.936 235.276 52.456 237.34 51.496C239.404 50.536 241.084 48.976 242.38 46.816H242.596V52H252.316ZM260.076 14.776V52H270.3V32.488C270.3 28.696 270.924 25.984 272.172 24.352C273.42 22.672 275.436 21.832 278.22 21.832C280.668 21.832 282.372 22.6 283.332 24.136C284.292 25.624 284.772 27.904 284.772 30.976V52H294.996V29.104C294.996 26.8 294.78 24.712 294.348 22.84C293.964 20.92 293.268 19.312 292.26 18.016C291.252 16.672 289.86 15.64 288.084 14.92C286.356 14.152 284.124 13.768 281.388 13.768C279.228 13.768 277.116 14.272 275.052 15.28C272.988 16.24 271.308 17.8 270.012 19.96H269.796V14.776H260.076ZM313.267 9.016V0.591997H303.043V9.016H313.267ZM303.043 14.776V52H313.267V14.776H303.043ZM334.278 14.776V3.616H324.054V14.776H317.862V21.616H324.054V43.576C324.054 45.448 324.366 46.96 324.99 48.112C325.614 49.264 326.454 50.152 327.51 50.776C328.614 51.4 329.862 51.808 331.254 52C332.694 52.24 334.206 52.36 335.79 52.36C336.798 52.36 337.83 52.336 338.886 52.288C339.942 52.24 340.902 52.144 341.766 52V44.08C341.286 44.176 340.782 44.248 340.254 44.296C339.726 44.344 339.174 44.368 338.598 44.368C336.87 44.368 335.718 44.08 335.142 43.504C334.566 42.928 334.278 41.776 334.278 40.048V21.616H341.766V14.776H334.278ZM364.99 56.608L380.542 14.776H369.958L361.822 40.264H361.678L353.254 14.776H342.382L355.414 49.696C355.702 50.416 355.846 51.184 355.846 52C355.846 53.104 355.51 54.112 354.838 55.024C354.214 55.936 353.23 56.464 351.886 56.608C350.878 56.656 349.87 56.632 348.862 56.536C347.854 56.44 346.87 56.344 345.91 56.248V64.672C346.966 64.768 347.998 64.84 349.006 64.888C350.062 64.984 351.118 65.032 352.174 65.032C355.678 65.032 358.414 64.384 360.382 63.088C362.35 61.792 363.886 59.632 364.99 56.608ZM391.598 14.848V3.688H387.062V14.848H380.582V18.664H387.062V44.08C387.014 47.248 387.59 49.432 388.79 50.632C389.99 51.784 392.102 52.36 395.126 52.36C395.798 52.36 396.47 52.336 397.142 52.288C397.814 52.24 398.486 52.216 399.158 52.216V48.4C397.862 48.544 396.566 48.616 395.27 48.616C393.638 48.52 392.606 48.064 392.174 47.248C391.79 46.384 391.598 45.208 391.598 43.72V18.664H399.158V14.848H391.598ZM421.399 17.584C423.559 17.584 425.455 18.04 427.087 18.952C428.719 19.864 430.063 21.064 431.119 22.552C432.223 24.04 433.039 25.744 433.567 27.664C434.143 29.536 434.431 31.456 434.431 33.424C434.431 35.392 434.143 37.336 433.567 39.256C433.039 41.128 432.223 42.808 431.119 44.296C430.063 45.784 428.719 46.984 427.087 47.896C425.455 48.808 423.559 49.264 421.399 49.264C419.239 49.264 417.343 48.808 415.711 47.896C414.079 46.984 412.711 45.784 411.607 44.296C410.551 42.808 409.735 41.128 409.159 39.256C408.631 37.336 408.367 35.392 408.367 33.424C408.367 31.456 408.631 29.536 409.159 27.664C409.735 25.744 410.551 24.04 411.607 22.552C412.711 21.064 414.079 19.864 415.711 18.952C417.343 18.04 419.239 17.584 421.399 17.584ZM421.399 13.768C418.567 13.768 416.047 14.296 413.839 15.352C411.679 16.408 409.855 17.824 408.367 19.6C406.879 21.376 405.751 23.464 404.983 25.864C404.215 28.216 403.831 30.736 403.831 33.424C403.831 36.112 404.215 38.656 404.983 41.056C405.751 43.408 406.879 45.472 408.367 47.248C409.855 49.024 411.679 50.44 413.839 51.496C416.047 52.504 418.567 53.008 421.399 53.008C424.231 53.008 426.727 52.504 428.887 51.496C431.095 50.44 432.943 49.024 434.431 47.248C435.919 45.472 437.047 43.408 437.815 41.056C438.583 38.656 438.967 36.112 438.967 33.424C438.967 30.736 438.583 28.216 437.815 25.864C437.047 23.464 435.919 21.376 434.431 19.6C432.943 17.824 431.095 16.408 428.887 15.352C426.727 14.296 424.231 13.768 421.399 13.768ZM461.407 17.584C463.567 17.584 465.463 18.04 467.095 18.952C468.727 19.864 470.071 21.064 471.127 22.552C472.231 24.04 473.047 25.744 473.575 27.664C474.151 29.536 474.439 31.456 474.439 33.424C474.439 35.392 474.151 37.336 473.575 39.256C473.047 41.128 472.231 42.808 471.127 44.296C470.071 45.784 468.727 46.984 467.095 47.896C465.463 48.808 463.567 49.264 461.407 49.264C459.247 49.264 457.351 48.808 455.719 47.896C454.087 46.984 452.719 45.784 451.615 44.296C450.559 42.808 449.743 41.128 449.167 39.256C448.639 37.336 448.375 35.392 448.375 33.424C448.375 31.456 448.639 29.536 449.167 27.664C449.743 25.744 450.559 24.04 451.615 22.552C452.719 21.064 454.087 19.864 455.719 18.952C457.351 18.04 459.247 17.584 461.407 17.584ZM461.407 13.768C458.575 13.768 456.055 14.296 453.847 15.352C451.687 16.408 449.863 17.824 448.375 19.6C446.887 21.376 445.759 23.464 444.991 25.864C444.223 28.216 443.839 30.736 443.839 33.424C443.839 36.112 444.223 38.656 444.991 41.056C445.759 43.408 446.887 45.472 448.375 47.248C449.863 49.024 451.687 50.44 453.847 51.496C456.055 52.504 458.575 53.008 461.407 53.008C464.239 53.008 466.735 52.504 468.895 51.496C471.103 50.44 472.951 49.024 474.439 47.248C475.927 45.472 477.055 43.408 477.823 41.056C478.591 38.656 478.975 36.112 478.975 33.424C478.975 30.736 478.591 28.216 477.823 25.864C477.055 23.464 475.927 21.376 474.439 19.6C472.951 17.824 471.103 16.408 468.895 15.352C466.735 14.296 464.239 13.768 461.407 13.768ZM485.79 0.591997V52H490.326V0.591997H485.79ZM521.256 25.72H525.792C525.696 23.704 525.288 21.952 524.568 20.464C523.848 18.976 522.864 17.728 521.616 16.72C520.416 15.712 519 14.968 517.368 14.488C515.784 14.008 514.056 13.768 512.184 13.768C510.552 13.768 508.896 13.96 507.216 14.344C505.584 14.728 504.096 15.328 502.752 16.144C501.408 16.96 500.304 18.04 499.439 19.384C498.624 20.728 498.216 22.336 498.216 24.208C498.216 25.792 498.48 27.136 499.008 28.24C499.536 29.296 500.256 30.208 501.168 30.976C502.128 31.696 503.232 32.32 504.48 32.848C505.728 33.328 507.096 33.76 508.584 34.144L514.416 35.44C515.424 35.68 516.408 35.968 517.368 36.304C518.376 36.64 519.264 37.072 520.032 37.6C520.8 38.08 521.4 38.704 521.832 39.472C522.312 40.192 522.552 41.104 522.552 42.208C522.552 43.504 522.216 44.608 521.544 45.52C520.92 46.384 520.104 47.104 519.096 47.68C518.088 48.256 516.984 48.664 515.784 48.904C514.632 49.144 513.504 49.264 512.4 49.264C509.376 49.264 506.832 48.496 504.768 46.96C502.752 45.376 501.648 43.048 501.456 39.976H496.92C497.304 44.536 498.84 47.848 501.528 49.912C504.264 51.976 507.816 53.008 512.184 53.008C513.912 53.008 515.664 52.816 517.44 52.432C519.216 52.048 520.8 51.424 522.192 50.56C523.632 49.648 524.808 48.496 525.72 47.104C526.632 45.664 527.088 43.936 527.088 41.92C527.088 40.288 526.776 38.872 526.152 37.672C525.528 36.472 524.712 35.464 523.704 34.648C522.744 33.832 521.616 33.184 520.32 32.704C519.072 32.176 517.8 31.816 516.504 31.624L510.456 30.256C509.688 30.064 508.848 29.824 507.936 29.536C507.024 29.2 506.184 28.792 505.416 28.312C504.648 27.832 504 27.256 503.472 26.584C502.992 25.864 502.752 25 502.752 23.992C502.752 22.792 503.016 21.784 503.544 20.968C504.072 20.152 504.768 19.504 505.632 19.024C506.496 18.496 507.432 18.136 508.44 17.944C509.496 17.704 510.528 17.584 511.536 17.584C512.832 17.584 514.056 17.752 515.208 18.088C516.36 18.376 517.368 18.856 518.232 19.528C519.144 20.2 519.864 21.064 520.392 22.12C520.92 23.128 521.208 24.328 521.256 25.72Z" fill="black"/>
</svg>
